<?xml version="1.0" encoding="utf-8"?>
<!-- Generator: Adobe Illustrator 16.0.0, SVG Export Plug-In . SVG Version: 6.00 Build 0)  -->
<!DOCTYPE svg PUBLIC "-//W3C//DTD SVG 1.1//EN" "http://www.w3.org/Graphics/SVG/1.1/DTD/svg11.dtd">
<svg version="1.1" id="图层_1" xmlns="http://www.w3.org/2000/svg" xmlns:xlink="http://www.w3.org/1999/xlink" x="0px" y="0px"
	 width="553.334px" height="545.332px" viewBox="-60.3 -97.499 553.334 545.332"
	 enable-background="new -60.3 -97.499 553.334 545.332" xml:space="preserve">
<circle fill="#8900F4" stroke="#6202B7" stroke-width="2" cx="220.446" cy="179.813" r="54.119"/>
<g id="箭头_7">
</g>
<g id="箭头_7_1_">
	<polygon fill="#8900F4" points="277.515,239.982 269.369,225.97 284.3,232.24 282.277,234.549 344.199,289.617 341.757,292.404 
		279.834,237.336 	"/>
	<polygon fill="#8900F4" stroke="#8900F4" stroke-width="5" points="263.715,250.287 259.034,234.769 272.107,244.329 
		269.604,246.105 317.089,314.017 314.067,316.162 266.582,248.25 	"/>
	<polygon fill="#8900F4" stroke="#8900F4" stroke-width="5" points="371.581,325.858 362.307,312.564 377.703,317.585 
		375.878,320.05 415.113,350.438 412.908,353.415 373.673,323.028 	"/>
	<polygon fill="#8900F4" points="340.766,347.217 333.723,332.619 348.127,340.021 345.931,342.166 379.837,378.404 
		377.188,380.995 343.282,344.757 	"/>
	<polygon fill="#8900F4" points="381.578,311.001 366.872,304.184 382.7,300.768 382.366,303.819 431.564,310.318 431.161,314.002 
		381.961,307.502 	"/>
	<polygon fill="#8900F4" stroke="#8900F4" stroke-width="5" points="324.638,354.931 324.407,338.725 334.345,351.509 
		331.453,352.529 346.917,399.684 343.423,400.916 327.956,353.76 	"/>
	<polygon fill="#8900F4" points="305.081,358.165 311.142,343.133 315.356,358.77 312.293,358.59 308.292,408.052 304.593,407.837 
		308.594,358.371 	"/>
</g>
<g>
	<polygon fill="#8900F4" stroke="#8900F4" stroke-width="5" points="176.1,260.892 187.675,249.545 185.273,265.56 182.538,264.168 
		144.415,337.744 141.114,336.064 179.235,262.487 	"/>
	<polygon fill="#8900F4" points="152.118,244.887 166.006,236.528 159.96,251.554 157.622,249.564 103.496,312.312 100.675,309.912 
		154.8,247.164 	"/>
	<polygon fill="#8900F4" points="173.46,239.595 186.431,229.874 181.936,245.434 179.41,243.693 131.91,311.594 128.859,309.491 
		176.36,241.59 	"/>
	<polygon fill="#8900F4" points="108.82,381.74 114.74,366.65 119.1,382.249 116.034,382.097 112.164,424.268 108.463,424.086 
		112.334,381.913 	"/>
	<polygon fill="#8900F4" stroke="#8900F4" stroke-width="5" points="153.893,356.931 156.111,340.874 164.005,355.015 
		160.99,355.586 169.158,404.534 165.517,405.225 157.349,356.273 	"/>
	<polygon fill="#8900F4" stroke="#8900F4" stroke-width="5" points="85.554,362.627 100.295,355.889 92.593,370.135 90.494,367.896 
		56.374,397.79 53.84,395.088 87.96,365.192 	"/>
	<polygon fill="#8900F4" points="176.86,348.324 170.282,333.512 184.442,341.365 182.181,343.441 210.216,375.372 207.486,377.877 
		179.449,345.945 	"/>
	<polygon fill="#8900F4" stroke="#8900F4" stroke-width="5" points="76.561,315.67 92.734,314.607 80.476,325.189 79.309,322.352 
		33.012,340.217 31.603,336.791 77.901,318.923 	"/>
	<polygon fill="#8900F4" points="76.34,290.861 91.663,296.144 76.263,301.153 76.285,298.084 26.683,296.626 26.71,292.922 
		76.315,294.379 	"/>
	<g>
		<circle fill="#315EDA" stroke="#002A87" stroke-width="2" cx="149.111" cy="321.414" r="20"/>
		<circle fill="#315EDA" stroke="#002A87" stroke-width="2" cx="111.509" cy="304.188" r="20"/>
		<circle fill="#315EDA" stroke="#002A87" stroke-width="2" cx="118.15" cy="344.237" r="20"/>
		<circle fill="#83A9FF" stroke="#0549C1" stroke-width="2" cx="41.472" cy="340.174" r="20"/>
		<circle fill="#83A9FF" stroke="#0549C1" stroke-width="2" cx="113.442" cy="407.393" r="20"/>
		<circle fill="#83A9FF" stroke="#0549C1" stroke-width="2" cx="65.15" cy="382.718" r="20"/>
		<circle fill="#83A9FF" stroke="#0549C1" stroke-width="2" cx="164.309" cy="400.408" r="20"/>
		<circle fill="#83A9FF" stroke="#0549C1" stroke-width="2" cx="197.739" cy="364.256" r="20"/>
		<circle fill="#83A9FF" stroke="#0549C1" stroke-width="2" cx="46.724" cy="293.398" r="20.001"/>
	</g>
</g>
<g>
	<circle fill="#F57643" stroke="#BC4524" stroke-width="2" cx="343.975" cy="296.469" r="20"/>
	<circle fill="#F57643" stroke="#BC4524" stroke-width="2" cx="309.59" cy="318.269" r="20.001"/>
	<circle fill="#F98673" stroke="#F57643" stroke-width="2" cx="311.572" cy="403.712" r="19.999"/>
	<circle fill="#F98673" stroke="#F57643" stroke-width="2" cx="350.242" cy="403.376" r="20"/>
	<g transform="translate(422.0126960492203,262.6841904157201)">
		<circle fill="#F98673" stroke="#F57643" stroke-width="2" cx="-35.112" cy="123.386" r="20"/>
	</g>
	<g transform="translate(426.60584597854785,222.07597364418868)">
		<circle fill="#F98673" stroke="#F57643" stroke-width="2" cx="-14.384" cy="131.915" r="20"/>
	</g>
	<g transform="translate(415.0769919671221,184.34005155873493)">
		<circle fill="#F98673" stroke="#F57643" stroke-width="2" cx="7.251" cy="131.511" r="20"/>
	</g>
</g>
<text transform="matrix(1 0 0 1 168.988 187.2944)" stroke="#000000" stroke-width="0.5" font-family="'SimHei'" font-size="17">武昌船舶重工</text>
<g>
	<polygon fill="#8900F4" points="205.323,89.833 202.627,105.817 195.158,91.447 198.19,90.966 185.797,9.031 189.457,8.45 
		201.848,90.385 	"/>
	<polygon fill="#8900F4" points="234.133,88.691 227.808,103.615 223.871,87.905 226.93,88.14 233.851,5.563 237.545,5.846 
		230.625,88.423 	"/>
	<polygon fill="#8900F4" stroke="#8900F4" stroke-width="5" points="219.975,105.514 215.191,121.001 209.685,105.771 
		212.752,105.693 211.283,22.841 214.988,22.749 216.457,105.603 	"/>
	<polygon fill="#8900F4" points="196.987,-49.904 195.297,-33.782 186.943,-47.656 189.937,-48.326 180.202,-91.643 
		183.816,-92.452 193.553,-49.134 	"/>
	<polygon fill="#8900F4" points="166.884,-7.005 170.185,8.864 158.002,-1.804 160.65,-3.355 136.519,-46.718 139.717,-48.591 
		163.85,-5.227 	"/>
	<polygon fill="#8900F4" points="227.408,-47.419 215.557,-36.363 218.353,-52.313 221.053,-50.854 242.238,-88.221 
		245.497,-86.459 224.312,-49.09 	"/>
	<polygon fill="#8900F4" stroke="#8900F4" stroke-width="5" points="261.441,-9.173 249.846,2.154 252.276,-13.858 255.009,-12.461 
		278.559,-56.141 281.858,-54.456 258.308,-10.773 	"/>
	<polygon fill="#8900F4" points="269.35,11.482 253.206,10.041 266.948,1.473 267.664,4.458 311.143,-5.17 312.009,-1.567 
		268.527,8.061 	"/>
	<polygon fill="#8900F4" stroke="#8900F4" stroke-width="5" points="154.46,15 166.377,25.987 150.261,24.397 151.513,21.596 
		106.661,0.361 108.172,-3.022 153.028,18.212 	"/>
	<g>
		<circle fill="#EE2C2C" stroke="#AD0C0C" stroke-width="2" cx="190.259" cy="20.738" r="20"/>
		<circle fill="#EE2C2C" stroke="#AD0C0C" stroke-width="2" cx="231.576" cy="18.855" r="20"/>
		<circle fill="#EE2C2C" stroke="#AD0C0C" stroke-width="2" cx="207.353" cy="-13.719" r="20"/>
		<circle fill="#F75E5E" stroke="#EE2C2C" stroke-width="2" cx="277.397" cy="-45.18" r="19.999"/>
		<circle fill="#F75E5E" stroke="#EE2C2C" stroke-width="2" cx="182.651" cy="-72.035" r="20"/>
		<circle fill="#F75E5E" stroke="#EE2C2C" stroke-width="2" cx="236.881" cy="-72.182" r="20"/>
		<path fill="#F75E5E" stroke="#EE2C2C" stroke-width="2" d="M146.935-61.532c10.478,3.491,16.144,14.818,12.653,25.296
			c-3.491,10.481-14.815,16.147-25.295,12.655c-10.482-3.491-16.147-14.814-12.657-25.294
			C125.127-59.355,136.453-65.021,146.935-61.532z"/>
		<circle fill="#F75E5E" stroke="#EE2C2C" stroke-width="2" cx="294.122" cy="-1.182" r="20"/>
		<path fill="#F75E5E" stroke="#EE2C2C" stroke-width="2" d="M124.473-20.159c10.478,3.491,16.144,14.818,12.653,25.296
			c-3.491,10.48-14.815,16.147-25.295,12.654c-10.482-3.49-16.147-14.813-12.657-25.294
			C102.665-17.981,113.991-23.648,124.473-20.159z"/>
	</g>
</g>
<g>
	<polygon fill="#8900F4" stroke="#8900F4" stroke-width="5" points="297.033,144.922 281.356,140.797 296.34,134.652 
		296.547,137.713 379.263,132.744 379.512,136.439 296.796,141.41 	"/>
	<polygon fill="#8900F4" points="289.951,158.329 274.225,154.402 289.133,148.07 289.375,151.128 372.024,145.118 372.317,148.811 
		289.671,154.822 	"/>
	<polygon fill="#8900F4" stroke="#8900F4" stroke-width="5" points="378.511,112.472 364.429,120.498 370.827,105.623 
		373.116,107.664 406.945,71.354 409.711,73.821 375.884,110.13 	"/>
	<polygon fill="#8900F4" points="424.224,113.337 409.09,119.135 417.67,105.402 419.623,107.768 458.569,77.009 460.927,79.864 
		421.984,110.625 	"/>
	<polygon fill="#8900F4" points="368.249,105.665 359.408,119.25 358.279,103.097 361.253,103.862 374.686,56.091 378.274,57.013 
		364.84,104.788 	"/>
	<polygon fill="#8900F4" points="428.861,134.012 412.991,130.716 427.629,123.793 427.997,126.838 477.385,121.987 
		477.828,125.665 428.439,130.519 	"/>
	<polygon fill="#8900F4" stroke="#8900F4" stroke-width="5" points="422.904,152.465 409.548,143.284 425.728,142.567 
		424.885,145.518 472.299,160.167 471.286,163.732 423.868,149.082 	"/>
	<polygon fill="#8900F4" points="411.694,166.678 405.439,151.724 419.427,159.883 417.122,161.91 457.7,206.248 454.915,208.694 
		414.338,164.355 	"/>
	<polygon fill="#8900F4" stroke="#8900F4" stroke-width="5" points="378.036,173.134 371.072,158.498 385.434,165.979 
		383.228,168.113 440.397,228.101 437.731,230.679 380.564,170.688 	"/>
	<polygon fill="#8900F4" points="361.6,177.798 366.393,162.315 371.889,177.55 368.82,177.625 368.93,227.248 365.226,227.342 
		365.115,177.712 	"/>
	<g>
		<circle fill="#F5F543" stroke="#B7AE09" stroke-width="2" cx="354.862" cy="141.438" r="20.001"/>
		<circle fill="#F5F543" stroke="#B7AE09" stroke-width="2" cx="389.128" cy="134.307" r="20"/>
		<path fill="#FFFCA1" stroke="#D1C709" stroke-width="2" d="M436.695,179.314c9.607-5.452,21.813-2.083,27.265,7.523
			c5.451,9.606,2.08,21.815-7.526,27.264c-9.604,5.451-21.813,2.082-27.263-7.522C423.72,196.969,427.089,184.762,436.695,179.314z"
			/>
		<circle fill="#FFFCA1" stroke="#D1C709" stroke-width="2" cx="464.779" cy="162.595" r="20"/>
		<circle fill="#FFFCA1" stroke="#D1C709" stroke-width="2" cx="386.686" cy="43.227" r="20.001"/>
		<path fill="#FFFCA1" stroke="#D1C709" stroke-width="2" d="M410.801,208.192c9.607-5.449,21.813-2.08,27.264,7.526
			c5.452,9.607,2.083,21.814-7.524,27.266c-9.606,5.449-21.813,2.082-27.265-7.524C397.825,225.85,401.193,213.645,410.801,208.192z
			"/>
		<path fill="#FFFCA1" stroke="#D1C709" stroke-width="2" d="M372.296,210.08c9.607-5.451,21.812-2.082,27.265,7.524
			c5.449,9.608,2.08,21.815-7.526,27.268c-9.606,5.447-21.813,2.08-27.265-7.526C359.319,227.737,362.687,215.532,372.296,210.08z"
			/>
		<circle fill="#FFFCA1" stroke="#D1C709" stroke-width="2" cx="424.591" cy="59.295" r="19.999"/>
		<circle fill="#FFFCA1" stroke="#D1C709" stroke-width="2" cx="451.818" cy="87.802" r="20"/>
		<circle fill="#FFFCA1" stroke="#D1C709" stroke-width="2" cx="469.696" cy="125.13" r="20"/>
	</g>
</g>
<g>
	<polygon fill="#8900F4" points="145.911,162.061 161.498,166.51 146.39,172.343 146.248,169.277 63.445,172.528 63.273,168.826 
		146.076,165.575 	"/>
	<polygon fill="#8900F4" stroke="#8900F4" stroke-width="5" points="146.17,142.424 160.302,150.362 144.253,152.537 
		144.825,149.522 63.522,133.506 64.212,129.866 145.516,145.881 	"/>
	<polygon fill="#8900F4" points="16.553,151.297 32.14,155.746 17.033,161.578 16.89,158.513 -32.721,159.733 -32.893,156.032 
		16.719,154.811 	"/>
	<polygon fill="#8900F4" stroke="#8900F4" stroke-width="5" points="18.086,179.844 34.286,179.334 21.675,189.491 20.605,186.615 
		-26.275,202.894 -27.566,199.421 19.314,183.141 	"/>
	<polygon fill="#8900F4" stroke="#8900F4" stroke-width="5" points="23.594,119.851 35.42,130.934 19.319,129.213 20.593,126.422 
		-24.086,104.824 -22.547,101.453 22.134,123.051 	"/>
	<polygon fill="#8900F4" points="32.49,196.343 45.991,187.375 40.622,202.651 38.196,200.771 6.919,239.299 3.991,237.028 
		35.27,198.499 	"/>
	<polygon fill="#8900F4" points="35.43,98.428 42.551,112.988 28.108,105.662 30.292,103.505 -3.804,67.448 -1.169,64.844 
		32.929,100.901 	"/>
	<polygon fill="#8900F4" stroke="#8900F4" stroke-width="5" points="61.278,89.038 62.204,105.22 51.726,92.873 54.574,91.729 
		37.102,45.282 40.539,43.902 58.013,90.351 	"/>
	<g>
		<path fill="#43F65B" stroke="#31AA0F" stroke-width="2" d="M68.592,152.839c6.515,8.919,4.564,21.432-4.356,27.946
			s-21.433,4.562-27.948-4.355c-6.513-8.923-4.563-21.435,4.357-27.948C49.567,141.969,62.078,143.919,68.592,152.839z"/>
		<circle fill="#43F65B" stroke="#31AA0F" stroke-width="2" cx="60.061" cy="127.093" r="19.999"/>
		<circle fill="#92F79C" stroke="#31AA0F" stroke-width="2" cx="46.417" cy="57.544" r="19.999"/>
		<circle fill="#92F79C" stroke="#31AA0F" stroke-width="2" cx="0.22" cy="76.886" r="20.001"/>
		<circle fill="#92F79C" stroke="#31AA0F" stroke-width="2" cx="-25.388" cy="115.349" r="19.999"/>
		<circle fill="#92F79C" stroke="#31AA0F" stroke-width="2" cx="-31.266" cy="158.17" r="20"/>
		<circle fill="#92F79C" stroke="#31AA0F" stroke-width="2" cx="-20.376" cy="200.302" r="19.999"/>
		<path fill="#92F79C" stroke="#31AA0F" stroke-width="2" d="M33.339,213.233c6.514,8.919,4.562,21.432-4.357,27.946
			c-8.921,6.512-21.432,4.563-27.949-4.357c-6.512-8.921-4.562-21.434,4.359-27.945C14.313,202.362,26.824,204.313,33.339,213.233z"
			/>
	</g>
	
		<text transform="matrix(1 4.998744e-004 -4.998744e-004 1 44.1248 131.3325)" stroke="#000000" stroke-width="0.5" font-family="'SimHei'" font-size="11">主机-1</text>
	
		<text transform="matrix(1 4.998744e-004 -4.998744e-004 1 37.1013 168.2939)" stroke="#000000" stroke-width="0.5" font-family="'SimHei'" font-size="11">主机-2</text>
	
		<text transform="matrix(1 4.998744e-004 -4.998744e-004 1 28.1453 61.231)" stroke="#000000" stroke-width="0.5" font-family="'SimHei'" font-size="9">主机-1-1</text>
	
		<text transform="matrix(1 4.998744e-004 -4.998744e-004 1 -18.7815 80.2988)" stroke="#000000" stroke-width="0.5" font-family="'SimHei'" font-size="9">主机-1-2</text>
	
		<text transform="matrix(1 4.998744e-004 -4.998744e-004 1 -49.2649 162.7231)" stroke="#000000" stroke-width="0.5" font-family="'SimHei'" font-size="9">主机-2-1</text>
	
		<text transform="matrix(1 4.998744e-004 -4.998744e-004 1 -43.3772 119.2495)" stroke="#000000" stroke-width="0.5" font-family="'SimHei'" font-size="9">主机-1-3</text>
	
		<text transform="matrix(1 4.998744e-004 -4.998744e-004 1 -38.3752 204.0176)" stroke="#000000" stroke-width="0.5" font-family="'SimHei'" font-size="9">主机-2-2</text>
	
		<text transform="matrix(1 4.998744e-004 -4.998744e-004 1 -0.8132 229.8652)" stroke="#000000" stroke-width="0.5" font-family="'SimHei'" font-size="9">主机-2-3</text>
</g>
<text transform="matrix(1 4.998744e-004 -4.998744e-004 1 173.7917 24.9873)" stroke="#000000" stroke-width="0.5" font-family="'SimHei'" font-size="11">辅机-1</text>
<text transform="matrix(1 4.998744e-004 -4.998744e-004 1 215.9753 22.7378)" stroke="#000000" stroke-width="0.5" font-family="'SimHei'" font-size="11">辅机-3</text>
<text transform="matrix(1 4.998744e-004 -4.998744e-004 1 100.6609 1.2861)" stroke="#000000" stroke-width="0.5" font-family="'SimHei'" font-size="9">辅机-1-1</text>
<text transform="matrix(1 4.998744e-004 -4.998744e-004 1 122.885 -39.1162)" stroke="#000000" stroke-width="0.5" font-family="'SimHei'" font-size="9">辅机-1-2</text>
<text transform="matrix(1 4.998744e-004 -4.998744e-004 1 219.5452 -69.1743)" stroke="#000000" stroke-width="0.5" font-family="'SimHei'" font-size="9">辅机-2-2</text>
<text transform="matrix(1 4.998744e-004 -4.998744e-004 1 164.3943 -68.1655)" stroke="#000000" stroke-width="0.5" font-family="'SimHei'" font-size="9">辅机-2-1</text>
<text transform="matrix(1 4.998744e-004 -4.998744e-004 1 259.3982 -41.1255)" stroke="#000000" stroke-width="0.5" font-family="'SimHei'" font-size="9">辅机-3-1</text>
<text transform="matrix(1 4.998744e-004 -4.998744e-004 1 276.1238 2.7246)" stroke="#000000" stroke-width="0.5" font-family="'SimHei'" font-size="9">辅机-3-2</text>
<text transform="matrix(1 4.998744e-004 -4.998744e-004 1 191.2488 -9.1699)" stroke="#000000" stroke-width="0.5" font-family="'SimHei'" font-size="11">辅机-2</text>
<text transform="matrix(1 4.998744e-004 -4.998744e-004 1 337.1257 146.0942)" stroke="#000000" stroke-width="0.5" font-family="'SimHei'" font-size="11">钢材-1</text>
<text transform="matrix(1 4.998744e-004 -4.998744e-004 1 369.2449 47.4238)" stroke="#000000" stroke-width="0.5" font-family="'SimHei'" font-size="9">钢材-1-1</text>
<text transform="matrix(1 4.998744e-004 -4.998744e-004 1 374.865 138.1685)" stroke="#000000" stroke-width="0.5" font-family="'SimHei'" font-size="11">钢材-2</text>
<text transform="matrix(1 4.998744e-004 -4.998744e-004 1 406.0906 63.231)" stroke="#000000" stroke-width="0.5" font-family="'SimHei'" font-size="9">钢材-1-2</text>
<text transform="matrix(1 4.998744e-004 -4.998744e-004 1 434.2244 92.3481)" stroke="#000000" stroke-width="0.5" font-family="'SimHei'" font-size="9">钢材-2-1</text>
<text transform="matrix(1 4.998744e-004 -4.998744e-004 1 451.8171 128.8657)" stroke="#000000" stroke-width="0.5" font-family="'SimHei'" font-size="9">钢材-2-2</text>
<text transform="matrix(1 4.998744e-004 -4.998744e-004 1 446.6931 165.7319)" stroke="#000000" stroke-width="0.5" font-family="'SimHei'" font-size="9">钢材-2-3</text>
<text transform="matrix(1 4.998744e-004 -4.998744e-004 1 428.0085 199.8931)" stroke="#000000" stroke-width="0.5" font-family="'SimHei'" font-size="9">钢材-2-4</text>
<text transform="matrix(1 4.998744e-004 -4.998744e-004 1 364.1609 232.7686)" stroke="#000000" stroke-width="0.5" font-family="'SimHei'" font-size="9">钢材-1-4</text>
<text transform="matrix(1 4.998744e-004 -4.998744e-004 1 402.9041 230.6787)" stroke="#000000" stroke-width="0.5" font-family="'SimHei'" font-size="9">钢材-1-3</text>
<text transform="matrix(1 4.998744e-004 -4.998744e-004 1 94.4421 308.3848)" stroke="#000000" stroke-width="0.5" font-family="'SimHei'" font-size="11">焊料-1</text>
<text transform="matrix(1 4.998744e-004 -4.998744e-004 1 28.1453 297.2656)" stroke="#000000" stroke-width="0.5" font-family="'SimHei'" font-size="9">焊料-1-1</text>
<text transform="matrix(1 4.998744e-004 -4.998744e-004 1 23.1863 344.1328)" stroke="#000000" stroke-width="0.5" font-family="'SimHei'" font-size="9">焊料-1-2</text>
<text transform="matrix(1 4.998744e-004 -4.998744e-004 1 101.1501 349.3848)" stroke="#000000" stroke-width="0.5" font-family="'SimHei'" font-size="11">焊料-2</text>
<text transform="matrix(1 4.998744e-004 -4.998744e-004 1 47.1248 387.4658)" stroke="#000000" stroke-width="0.5" font-family="'SimHei'" font-size="9">焊料-2-1</text>
<text transform="matrix(1 4.998744e-004 -4.998744e-004 1 95.4421 412.4658)" stroke="#000000" stroke-width="0.5" font-family="'SimHei'" font-size="9">焊料-2-2</text>
<text transform="matrix(1 4.998744e-004 -4.998744e-004 1 132.5183 327.4121)" stroke="#000000" stroke-width="0.5" font-family="'SimHei'" font-size="11">焊料-3</text>
<text transform="matrix(1 4.998744e-004 -4.998744e-004 1 146.1111 404.7119)" stroke="#000000" stroke-width="0.5" font-family="'SimHei'" font-size="9">焊料-3-1</text>
<text transform="matrix(1 4.998744e-004 -4.998744e-004 1 179.739 369.8203)" stroke="#000000" stroke-width="0.5" font-family="'SimHei'" font-size="9">焊料-3-2</text>
<text transform="matrix(1 4.998744e-004 -4.998744e-004 1 327.5925 300.7676)" stroke="#000000" stroke-width="0.5" font-family="'SimHei'" font-size="11">其它-1</text>
<text transform="matrix(1 4.998744e-004 -4.998744e-004 1 293.1238 323.1875)" stroke="#000000" stroke-width="0.5" font-family="'SimHei'" font-size="11">其它-2</text>
<text transform="matrix(1 4.998744e-004 -4.998744e-004 1 403.9041 319.2686)" stroke="#000000" stroke-width="0.5" font-family="'SimHei'" font-size="9">其它-1-1</text>
<text transform="matrix(1 4.998744e-004 -4.998744e-004 1 394.2185 357.8066)" stroke="#000000" stroke-width="0.5" font-family="'SimHei'" font-size="9">其它-1-2</text>
<text transform="matrix(1 4.998744e-004 -4.998744e-004 1 369.2761 389.4658)" stroke="#000000" stroke-width="0.5" font-family="'SimHei'" font-size="9">其它-2-1</text>
<text transform="matrix(1 4.998744e-004 -4.998744e-004 1 332.5925 407.0732)" stroke="#000000" stroke-width="0.5" font-family="'SimHei'" font-size="9">其它-2-2</text>
<text transform="matrix(1 4.998744e-004 -4.998744e-004 1 292.1238 408.0723)" stroke="#000000" stroke-width="0.5" font-family="'SimHei'" font-size="9">其它-2-3</text>
</svg>
